<svg width="343" height="18" viewBox="0 0 343 18" fill="none" xmlns="http://www.w3.org/2000/svg">
<path d="M0 9H165.5" stroke="#E1E6EA"/>
<path d="M171.516 14.168C170.741 14.168 170.022 14.042 169.36 13.79C168.706 13.538 168.137 13.1833 167.652 12.726C167.176 12.2687 166.802 11.732 166.532 11.116C166.27 10.5 166.14 9.828 166.14 9.1C166.14 8.372 166.27 7.7 166.532 7.084C166.802 6.468 167.18 5.93133 167.666 5.474C168.151 5.01667 168.72 4.662 169.374 4.41C170.027 4.158 170.736 4.032 171.502 4.032C172.276 4.032 172.986 4.158 173.63 4.41C174.283 4.662 174.848 5.01667 175.324 5.474C175.809 5.93133 176.187 6.468 176.458 7.084C176.728 7.69067 176.864 8.36267 176.864 9.1C176.864 9.828 176.728 10.5047 176.458 11.13C176.187 11.746 175.809 12.2827 175.324 12.74C174.848 13.188 174.283 13.538 173.63 13.79C172.986 14.042 172.281 14.168 171.516 14.168ZM171.502 12.236C171.94 12.236 172.342 12.1613 172.706 12.012C173.079 11.8627 173.406 11.648 173.686 11.368C173.966 11.088 174.18 10.7567 174.33 10.374C174.488 9.99133 174.568 9.56667 174.568 9.1C174.568 8.63333 174.488 8.20867 174.33 7.826C174.18 7.44333 173.966 7.112 173.686 6.832C173.415 6.552 173.093 6.33733 172.72 6.188C172.346 6.03867 171.94 5.964 171.502 5.964C171.063 5.964 170.657 6.03867 170.284 6.188C169.92 6.33733 169.598 6.552 169.318 6.832C169.038 7.112 168.818 7.44333 168.66 7.826C168.51 8.20867 168.436 8.63333 168.436 9.1C168.436 9.55733 168.51 9.982 168.66 10.374C168.818 10.7567 169.033 11.088 169.304 11.368C169.584 11.648 169.91 11.8627 170.284 12.012C170.657 12.1613 171.063 12.236 171.502 12.236Z" fill="#94A5B0"/>
<path d="M177.5 9H343" stroke="#E1E6EA"/>
</svg>
